<svg xmlns="http://www.w3.org/2000/svg" width="12.857" height="15" viewBox="0 0 12.857 15">
  <path id="arrow-to-bottom-regular" d="M11.669,38.7,6.713,43.669a.4.4,0,0,1-.569,0L1.189,38.7a.4.4,0,0,1,0-.569l.656-.656a.4.4,0,0,1,.573.007l3.137,3.251V32.4a.4.4,0,0,1,.4-.4h.938a.4.4,0,0,1,.4.4v8.33l3.137-3.251a.4.4,0,0,1,.573-.007l.656.656A.4.4,0,0,1,11.669,38.7Zm.787,6.559H.4a.4.4,0,0,0-.4.4V46.6a.4.4,0,0,0,.4.4H12.455a.4.4,0,0,0,.4-.4v-.937A.4.4,0,0,0,12.455,45.259Z" transform="translate(0 -32)" fill="#fff"/>
</svg>
