<svg id="arrow-down-regular" xmlns="http://www.w3.org/2000/svg" width="35" height="35.409" viewBox="0 0 35 35.409">
  <path id="arrow-down-regular-2" data-name="arrow-down-regular" d="M37.3,49.237l-1.565-1.565a.949.949,0,0,0-1.344,0L22.13,59.93V32.948A.951.951,0,0,0,21.181,32H18.969a.951.951,0,0,0-.948.948V59.93L5.762,47.672a.949.949,0,0,0-1.344,0L2.854,49.237a.949.949,0,0,0,0,1.344L19.4,67.13a.949.949,0,0,0,1.344,0L37.3,50.581A.949.949,0,0,0,37.3,49.237Z" transform="translate(-2.575 -32)" fill="#8eb1c5"/>
</svg>