<svg xmlns="http://www.w3.org/2000/svg" width="50" height="50" viewBox="0 0 50 50">
  <path id="Path_30" data-name="Path 30" d="M300.621,30.043a19.515,19.515,0,0,1-38.107-1.84h1.859A17.679,17.679,0,0,0,299,28.92l.162-.717h7.59V0h-50V19.955h6.134c.011-.047.024-.092.036-.137a19.532,19.532,0,0,1,37.874.853l.254,1.124h-7.323l-.207-.635a12.375,12.375,0,1,0-.464,8.884H289.1a8.921,8.921,0,1,1,.957-8.249H288.02a7.036,7.036,0,1,0-.209,6.852l.268-.444h7.579l-.385,1.2c-.051.162-.108.321-.166.482a14.213,14.213,0,1,1-.058-9.93h3.66a17.692,17.692,0,0,0-34.01.349c-.069.253-.135.51-.192.771l-.162.719h-7.591V50h50V30.043Z" transform="translate(-256.753)" fill="#8eb1c5"/>
</svg>
